<?xml version="1.0" encoding="UTF-8" standalone="no"?>
<!-- Created with Inkscape (http://www.inkscape.org/) -->

<svg
   xmlns:dc="http://purl.org/dc/elements/1.1/"
   xmlns:cc="http://creativecommons.org/ns#"
   xmlns:rdf="http://www.w3.org/1999/02/22-rdf-syntax-ns#"
   xmlns:svg="http://www.w3.org/2000/svg"
   xmlns="http://www.w3.org/2000/svg"
   xmlns:sodipodi="http://sodipodi.sourceforge.net/DTD/sodipodi-0.dtd"
   xmlns:inkscape="http://www.inkscape.org/namespaces/inkscape"
   width="300"
   height="300"
   viewBox="0 0 300.00001 300"
   id="svg6369"
   version="1.1"
   inkscape:version="0.91 r"
   sodipodi:docname="test.svg">
  <defs
     id="defs6371" />
  <sodipodi:namedview
     id="base"
     pagecolor="#ffffff"
     bordercolor="#666666"
     borderopacity="1.0"
     inkscape:pageopacity="0.0"
     inkscape:pageshadow="2"
     inkscape:zoom="1.4"
     inkscape:cx="125.17857"
     inkscape:cy="139.64286"
     inkscape:document-units="px"
     inkscape:current-layer="layer1"
     showgrid="false"
     units="px"
     inkscape:window-width="1318"
     inkscape:window-height="1028"
     inkscape:window-x="601"
     inkscape:window-y="24"
     inkscape:window-maximized="0" />
  <metadata
     id="metadata6374">
    <rdf:RDF>
      <cc:Work
         rdf:about="">
        <dc:format>image/svg+xml</dc:format>
        <dc:type
           rdf:resource="http://purl.org/dc/dcmitype/StillImage" />
        <dc:title></dc:title>
      </cc:Work>
    </rdf:RDF>
  </metadata>
  <g
     inkscape:label="Layer 1"
     inkscape:groupmode="layer"
     id="layer1"
     transform="translate(0,-752.36216)">
    <path
       inkscape:connector-curvature="0"
       id="path122838"
       d="m 30,802.36214 a 5.0005,5.0005 0 0 0 -5,5 l 0,140 a 5.0005,5.0005 0 0 0 5,5 l 240,0 a 5.0005,5.0005 0 0 0 5,-5 l 0,-140 a 5.0005,5.0005 0 0 0 -5,-5 l -240,0 z m 5,10 230,0 0,130 -230,0 0,-130 z m 15.000001,10 a 5.0005,5.0005 0 0 0 -5,5 l 0,100 a 5.0005,5.0005 0 0 0 5,5 l 199.999999,0 a 5.0005,5.0005 0 0 0 5,-5 l 0,-100 a 5.0005,5.0005 0 0 0 -5,-5 l -199.999999,0 z m 5,10 189.999999,0 0,90 -189.999999,0 0,-90 z M 10,962.36214 a 5.0005,5.0005 0 0 0 -5,5 l 0,30 a 5.0005,5.0005 0 0 0 5,5.00006 l 280,0 a 5.0005,5.0005 0 0 0 5,-5.00006 l 0,-30 a 5.0005,5.0005 0 0 0 -5,-5 l -280,0 z m 5,10 80.000001,0 0,5 c 3e-4,2.7613 2.2387,4.9997 4.999999,5 l 100,0 c 2.7613,-3e-4 4.9997,-2.2387 5,-5 l 0,-5 80,0 0,20 -270,0 0,-20 z"
       style="color:black;font-style:normal;font-variant:normal;font-weight:normal;font-stretch:normal;font-size:medium;line-height:normal;font-family:sans-serif;text-indent:0;text-align:start;text-decoration:none;text-decoration-line:none;text-decoration-style:solid;text-decoration-color:black;letter-spacing:normal;word-spacing:normal;text-transform:none;direction:ltr;block-progression:tb;writing-mode:lr-tb;baseline-shift:baseline;text-anchor:start;white-space:normal;clip-rule:nonzero;display:inline;overflow:visible;visibility:visible;opacity:1;isolation:auto;mix-blend-mode:normal;color-interpolation:sRGB;color-interpolation-filters:linearRGB;solid-color:black;solid-opacity:1;fill:black;fill-opacity:1;fill-rule:evenodd;stroke:none;stroke-width:10;stroke-linecap:round;stroke-linejoin:round;stroke-miterlimit:4;stroke-dasharray:none;stroke-dashoffset:0;stroke-opacity:1;marker:none;color-rendering:auto;image-rendering:auto;shape-rendering:auto;text-rendering:auto;enable-background:accumulate" />
  </g>
</svg>
